HIERARCHY
ROOT mixamorig:Hips
{
	OFFSET 0.000000 201.639420 0.000000
	CHANNELS 6 Xposition Yposition Zposition Xrotation Yrotation Zrotation
	JOINT mixamorig:Spine
	{
		OFFSET 0.006200 19.524994 -2.481800
		CHANNELS 3 Xrotation Yrotation Zrotation
		JOINT mixamorig:Spine1
		{
			OFFSET -0.000900 22.835007 -2.825400
			CHANNELS 3 Xrotation Yrotation Zrotation
			JOINT mixamorig:Spine2
			{
				OFFSET -0.020600 26.552490 -3.193300
				CHANNELS 3 Xrotation Yrotation Zrotation
				JOINT mixamorig:Neck
				{
					OFFSET -0.060000 30.701813 1.352200
					CHANNELS 3 Xrotation Yrotation Zrotation
					JOINT mixamorig:Head
					{
						OFFSET -0.087200 22.547607 3.670900
						CHANNELS 3 Xrotation Yrotation Zrotation
						JOINT mixamorig:HeadTop_End
						{
							OFFSET -0.830600 40.355194 7.893500
							CHANNELS 3 Xrotation Yrotation Zrotation
							End Site
							{
								OFFSET 0.000000 30.592346 0.000000
							}
						}
						JOINT mixamorig:RightEye
						{
							OFFSET -6.302100 18.118591 16.197100
							CHANNELS 3 Xrotation Yrotation Zrotation
							End Site
							{
								OFFSET 0.000000 30.592346 0.000000
							}
						}
						JOINT mixamorig:LeftEye
						{
							OFFSET 6.741500 18.382690 16.401899
							CHANNELS 3 Xrotation Yrotation Zrotation
							End Site
							{
								OFFSET 0.000000 30.592346 0.000000
							}
						}
					}
				}
				JOINT mixamorig:LeftShoulder
				{
					OFFSET 11.924900 18.230499 1.425400
					CHANNELS 3 Xrotation Yrotation Zrotation
					JOINT mixamorig:LeftArm
					{
						OFFSET 25.435989 -0.697632 -5.229300
						CHANNELS 3 Xrotation Yrotation Zrotation
						JOINT mixamorig:LeftForeArm
						{
							OFFSET 54.684776 0.000000 0.000000
							CHANNELS 3 Xrotation Yrotation Zrotation
							JOINT mixamorig:LeftHand
							{
								OFFSET 55.098175 0.000000 0.000000
								CHANNELS 3 Xrotation Yrotation Zrotation
								JOINT mixamorig:LeftHandMiddle1
								{
									OFFSET 23.369751 0.000000 0.000000
									CHANNELS 3 Xrotation Yrotation Zrotation
									JOINT mixamorig:LeftHandMiddle2
									{
										OFFSET 6.378677 0.000000 0.000000
										CHANNELS 3 Xrotation Yrotation Zrotation
										JOINT mixamorig:LeftHandMiddle3
										{
											OFFSET 6.148331 0.000000 0.000000
											CHANNELS 3 Xrotation Yrotation Zrotation
											JOINT mixamorig:LeftHandMiddle4
											{
												OFFSET 6.582504 0.000000 0.000000
												CHANNELS 3 Xrotation Yrotation Zrotation
												End Site
												{
													OFFSET -1.168900 6.395691 1.028606
												}
											}
										}
									}
								}
								JOINT mixamorig:LeftHandThumb1
								{
									OFFSET 7.235672 -3.848206 5.434273
									CHANNELS 3 Xrotation Yrotation Zrotation
									JOINT mixamorig:LeftHandThumb2
									{
										OFFSET 6.568451 -3.792297 3.792300
										CHANNELS 3 Xrotation Yrotation Zrotation
										JOINT mixamorig:LeftHandThumb3
										{
											OFFSET 6.063080 -3.500519 3.500518
											CHANNELS 3 Xrotation Yrotation Zrotation
											JOINT mixamorig:LeftHandThumb4
											{
												OFFSET 4.793182 -2.767334 2.767349
												CHANNELS 3 Xrotation Yrotation Zrotation
												End Site
												{
													OFFSET 0.101639 6.054260 1.275483
												}
											}
										}
									}
								}
								JOINT mixamorig:LeftHandIndex1
								{
									OFFSET 23.101074 -0.309540 4.992809
									CHANNELS 3 Xrotation Yrotation Zrotation
									JOINT mixamorig:LeftHandIndex2
									{
										OFFSET 6.226883 0.000000 0.000000
										CHANNELS 3 Xrotation Yrotation Zrotation
										JOINT mixamorig:LeftHandIndex3
										{
											OFFSET 6.094330 0.000000 0.000000
											CHANNELS 3 Xrotation Yrotation Zrotation
											JOINT mixamorig:LeftHandIndex4
											{
												OFFSET 5.482605 0.000000 0.000000
												CHANNELS 3 Xrotation Yrotation Zrotation
												End Site
												{
													OFFSET -1.427902 5.233032 0.797164
												}
											}
										}
									}
								}
								JOINT mixamorig:LeftHandRing1
								{
									OFFSET 22.299240 0.021149 -3.964172
									CHANNELS 3 Xrotation Yrotation Zrotation
									JOINT mixamorig:LeftHandRing2
									{
										OFFSET 6.321869 0.000000 0.000000
										CHANNELS 3 Xrotation Yrotation Zrotation
										JOINT mixamorig:LeftHandRing3
										{
											OFFSET 5.899796 0.000000 0.000000
											CHANNELS 3 Xrotation Yrotation Zrotation
											JOINT mixamorig:LeftHandRing4
											{
												OFFSET 6.517899 0.000000 0.000000
												CHANNELS 3 Xrotation Yrotation Zrotation
												End Site
												{
													OFFSET -1.637299 6.232208 0.980890
												}
											}
										}
									}
								}
								JOINT mixamorig:LeftHandPinky1
								{
									OFFSET 20.463791 -0.302338 -8.562233
									CHANNELS 3 Xrotation Yrotation Zrotation
									JOINT mixamorig:LeftHandPinky2
									{
										OFFSET 6.908646 0.000000 0.000000
										CHANNELS 3 Xrotation Yrotation Zrotation
										JOINT mixamorig:LeftHandPinky3
										{
											OFFSET 4.622849 0.000000 0.000000
											CHANNELS 3 Xrotation Yrotation Zrotation
											JOINT mixamorig:LeftHandPinky4
											{
												OFFSET 5.216080 0.000000 0.000000
												CHANNELS 3 Xrotation Yrotation Zrotation
												End Site
												{
													OFFSET -0.606308 5.116241 0.814926
												}
											}
										}
									}
								}
							}
						}
					}
				}
				JOINT mixamorig:RightShoulder
				{
					OFFSET -12.001300 18.284088 1.348900
					CHANNELS 3 Xrotation Yrotation Zrotation
					JOINT mixamorig:RightArm
					{
						OFFSET -25.308500 -0.751312 -5.164599
						CHANNELS 3 Xrotation Yrotation Zrotation
						JOINT mixamorig:RightForeArm
						{
							OFFSET -54.684429 0.000000 0.000000
							CHANNELS 3 Xrotation Yrotation Zrotation
							JOINT mixamorig:RightHand
							{
								OFFSET -55.150291 0.000000 0.000000
								CHANNELS 3 Xrotation Yrotation Zrotation
								JOINT mixamorig:RightHandMiddle1
								{
									OFFSET -23.317566 0.000000 0.000000
									CHANNELS 3 Xrotation Yrotation Zrotation
									JOINT mixamorig:RightHandMiddle2
									{
										OFFSET -6.378403 0.000000 0.000000
										CHANNELS 3 Xrotation Yrotation Zrotation
										JOINT mixamorig:RightHandMiddle3
										{
											OFFSET -6.148193 0.000000 0.000000
											CHANNELS 3 Xrotation Yrotation Zrotation
											JOINT mixamorig:RightHandMiddle4
											{
												OFFSET -6.583389 0.000000 0.000000
												CHANNELS 3 Xrotation Yrotation Zrotation
												End Site
												{
													OFFSET 1.171692 6.395905 1.029786
												}
											}
										}
									}
								}
								JOINT mixamorig:RightHandThumb1
								{
									OFFSET -7.190521 -3.860474 5.435846
									CHANNELS 3 Xrotation Yrotation Zrotation
									JOINT mixamorig:RightHandThumb2
									{
										OFFSET -6.567429 -3.791718 3.791708
										CHANNELS 3 Xrotation Yrotation Zrotation
										JOINT mixamorig:RightHandThumb3
										{
											OFFSET -6.062469 -3.500153 3.500166
											CHANNELS 3 Xrotation Yrotation Zrotation
											JOINT mixamorig:RightHandThumb4
											{
												OFFSET -4.792618 -2.767029 2.767022
												CHANNELS 3 Xrotation Yrotation Zrotation
												End Site
												{
													OFFSET -0.100327 6.053253 1.276754
												}
											}
										}
									}
								}
								JOINT mixamorig:RightHandIndex1
								{
									OFFSET -23.048981 -0.310791 4.992554
									CHANNELS 3 Xrotation Yrotation Zrotation
									JOINT mixamorig:RightHandIndex2
									{
										OFFSET -6.227539 0.000000 0.000000
										CHANNELS 3 Xrotation Yrotation Zrotation
										JOINT mixamorig:RightHandIndex3
										{
											OFFSET -6.095047 0.000000 0.000000
											CHANNELS 3 Xrotation Yrotation Zrotation
											JOINT mixamorig:RightHandIndex4
											{
												OFFSET -5.484772 0.000000 0.000000
												CHANNELS 3 Xrotation Yrotation Zrotation
												End Site
												{
													OFFSET 1.420593 5.237305 0.797056
												}
											}
										}
									}
								}
								JOINT mixamorig:RightHandRing1
								{
									OFFSET -22.246323 0.020569 -3.963762
									CHANNELS 3 Xrotation Yrotation Zrotation
									JOINT mixamorig:RightHandRing2
									{
										OFFSET -6.322128 0.000000 0.000000
										CHANNELS 3 Xrotation Yrotation Zrotation
										JOINT mixamorig:RightHandRing3
										{
											OFFSET -5.900024 0.000000 0.000000
											CHANNELS 3 Xrotation Yrotation Zrotation
											JOINT mixamorig:RightHandRing4
											{
												OFFSET -6.518356 0.000000 0.000000
												CHANNELS 3 Xrotation Yrotation Zrotation
												End Site
												{
													OFFSET 1.636398 6.232697 0.982186
												}
											}
										}
									}
								}
								JOINT mixamorig:RightHandPinky1
								{
									OFFSET -20.411011 -0.303314 -8.561701
									CHANNELS 3 Xrotation Yrotation Zrotation
									JOINT mixamorig:RightHandPinky2
									{
										OFFSET -6.907349 0.000000 0.000000
										CHANNELS 3 Xrotation Yrotation Zrotation
										JOINT mixamorig:RightHandPinky3
										{
											OFFSET -4.623840 0.000000 0.000000
											CHANNELS 3 Xrotation Yrotation Zrotation
											JOINT mixamorig:RightHandPinky4
											{
												OFFSET -5.218353 0.000000 0.000000
												CHANNELS 3 Xrotation Yrotation Zrotation
												End Site
												{
													OFFSET 0.602097 5.118835 0.816273
												}
											}
										}
									}
								}
							}
						}
					}
				}
			}
		}
	}
	JOINT mixamorig:LeftUpLeg
	{
		OFFSET 18.168400 -13.561905 -0.039000
		CHANNELS 3 Xrotation Yrotation Zrotation
		JOINT mixamorig:LeftLeg
		{
			OFFSET 0.577358 -80.825211 -3.695000
			CHANNELS 3 Xrotation Yrotation Zrotation
			JOINT mixamorig:LeftFoot
			{
				OFFSET -0.577356 -83.370262 -6.520700
				CHANNELS 3 Xrotation Yrotation Zrotation
				JOINT mixamorig:LeftToeBase
				{
					OFFSET 0.750401 -20.798306 25.135401
					CHANNELS 3 Xrotation Yrotation Zrotation
					JOINT mixamorig:LeftToe_End
					{
						OFFSET -0.000500 0.001200 19.917799
						CHANNELS 3 Xrotation Yrotation Zrotation
						End Site
						{
							OFFSET 0.000000 19.917805 0.000000
						}
					}
				}
			}
		}
	}
	JOINT mixamorig:RightUpLeg
	{
		OFFSET -18.162500 -13.585098 -0.041000
		CHANNELS 3 Xrotation Yrotation Zrotation
		JOINT mixamorig:RightLeg
		{
			OFFSET -0.595024 -80.945297 -3.631900
			CHANNELS 3 Xrotation Yrotation Zrotation
			JOINT mixamorig:RightFoot
			{
				OFFSET 0.595024 -83.218193 -6.561200
				CHANNELS 3 Xrotation Yrotation Zrotation
				JOINT mixamorig:RightToeBase
				{
					OFFSET -0.753601 -20.807106 25.115000
					CHANNELS 3 Xrotation Yrotation Zrotation
					JOINT mixamorig:RightToe_End
					{
						OFFSET 0.000299 0.001700 19.918200
						CHANNELS 3 Xrotation Yrotation Zrotation
						End Site
						{
							OFFSET 0.000000 19.918203 0.000000
						}
					}
				}
			}
		}
	}
}
MOTION
Frames: 5
Frame Time: 0.033333
14.765126 200.780258 -1.001087 0.016002 -14.055623 -2.102922 1.259000 -1.116051 -2.101583 0.250490 -0.905452 -0.754044 0.246356 -0.923778 -0.725253 0.768101 2.301217 1.497069 -1.225272 13.760797 -1.545212 -0.000000 0.000000 0.000001 -0.000000 0.000000 0.000001 -0.000000 0.000000 0.000001 -1.492471 9.670553 -2.968953 40.865503 -60.626098 -25.989867 -0.000021 -22.851842 -0.000021 -25.378297 2.524832 11.653149 0.379674 2.258996 -19.079150 0.158851 1.473390 -12.306090 0.039714 0.739995 -6.144024 -0.000002 0.000000 0.000001 -3.405767 19.076283 14.453261 15.249451 14.620669 -5.800665 4.892161 5.223030 0.075629 0.000002 -0.000002 -0.000000 0.380317 2.260831 -19.095158 0.158438 1.471502 -12.290085 0.039720 0.739983 -6.144038 -0.000000 0.000001 -0.000001 0.380316 2.260823 -19.095168 0.158430 1.471508 -12.290087 0.039715 0.740000 -6.144020 -0.000001 0.000000 -0.000001 1.696007 6.096986 -18.680649 0.153588 -2.584216 -12.789188 0.039703 0.740003 -6.144016 -0.000001 0.000001 0.000001 4.386904 5.069497 -15.101459 -42.064365 -20.386923 36.481355 0.000219 107.943818 -0.000228 -55.252139 -9.967589 16.712090 6.426460 -6.928710 85.682927 5.418213 -6.778479 77.248770 1.512953 -4.334960 38.463831 -0.000002 0.000002 -0.000002 -38.571608 8.421344 28.523164 18.401704 -4.597448 -0.198081 5.569716 2.114521 -3.018707 0.000003 -0.000000 0.000000 6.426458 -6.928695 85.682920 5.418191 -6.778437 77.248784 1.512937 -4.334954 38.463814 -0.000000 0.000000 0.000000 6.426471 -6.928708 85.682899 5.418198 -6.778469 77.248763 1.512943 -4.334957 38.463828 -0.000005 -0.000000 0.000000 6.426454 -6.928698 85.682920 5.418206 -6.778469 77.248763 1.512944 -4.334950 38.463811 -0.000005 -0.000000 0.000001 -17.915354 21.539118 8.781026 22.668039 10.043746 5.354264 -5.966706 7.314994 -6.520469 -0.000003 -0.000008 -0.000001 -0.000000 0.000001 -0.000000 -13.108856 -18.874545 -8.252724 8.722092 9.779210 -2.950176 2.105112 8.353210 9.450338 -0.000001 0.000003 0.000005 0.000000 -0.000000 0.000000 
14.085689 200.818512 -0.990246 0.043217 -13.685747 -2.115617 1.264864 -1.090129 -1.931348 0.243081 -0.887496 -0.668806 0.238651 -0.903328 -0.640287 0.686618 2.279357 1.392330 -1.307782 13.506411 -1.507747 -0.000000 0.000000 -0.000001 -0.000000 0.000000 -0.000001 -0.000000 0.000000 -0.000001 -1.478887 9.674986 -3.095720 40.861439 -60.944617 -25.956969 0.000014 -22.718017 -0.000011 -25.256474 2.525847 11.525495 0.379675 2.258997 -19.079150 0.158851 1.473389 -12.306088 0.039714 0.739995 -6.144021 -0.000001 0.000001 0.000001 -3.405767 19.076288 14.453251 15.249447 14.620674 -5.800672 4.892162 5.223029 0.075627 0.000000 0.000004 0.000003 0.380317 2.260833 -19.095163 0.158434 1.471503 -12.290082 0.039720 0.739984 -6.144042 -0.000001 -0.000001 -0.000001 0.380311 2.260828 -19.095174 0.158434 1.471508 -12.290090 0.039717 0.740002 -6.144020 -0.000002 -0.000000 -0.000000 1.696013 6.096985 -18.680649 0.153589 -2.584216 -12.789192 0.039709 0.740003 -6.144017 0.000000 -0.000002 -0.000000 4.393520 5.168101 -14.437763 -39.397791 -17.924397 37.125811 0.000035 106.941604 -0.000035 -53.465259 -10.313510 17.036775 5.200221 -6.725798 75.394811 4.378404 -6.457718 68.245037 1.192268 -3.898401 33.998971 -0.000001 -0.000001 -0.000002 -38.570631 8.420956 28.522597 27.489874 -8.954928 -1.739021 10.060272 -0.077218 -4.435764 0.000003 -0.000001 -0.000002 5.200212 -6.725795 75.394825 4.378395 -6.457674 68.245024 1.192266 -3.898418 33.998978 0.000002 0.000001 0.000001 5.200217 -6.725813 75.394818 4.378410 -6.457704 68.245037 1.192246 -3.898392 33.998971 -0.000000 0.000001 0.000001 5.200216 -6.725790 75.394811 4.378405 -6.457698 68.245037 1.192252 -3.898410 33.998978 -0.000002 -0.000002 0.000000 -17.916565 21.373649 8.977718 22.485860 10.046937 5.329295 -5.756214 7.108296 -6.692621 -0.000003 -0.000007 -0.000001 0.000000 0.000001 -0.000000 -13.160216 -18.609861 -8.194954 9.266775 9.775123 -2.678918 1.747468 7.690977 9.100121 -0.000001 0.000002 -0.000004 0.000000 -0.000001 0.000000 
13.362823 200.861099 -0.984603 0.039629 -13.321553 -2.151186 1.278257 -1.081476 -1.765585 0.240100 -0.882312 -0.586703 0.235384 -0.895745 -0.557967 0.583810 2.252853 1.318928 -1.360557 13.268209 -1.470906 -0.000000 0.000000 -0.000000 -0.000000 0.000000 -0.000000 -0.000000 0.000000 -0.000000 -1.469077 9.680755 -3.193383 40.863850 -61.277602 -25.909751 0.000010 -22.577419 0.000015 -25.234839 2.574172 11.329978 0.379675 2.258996 -19.079153 0.158855 1.473390 -12.306088 0.039715 0.739994 -6.144026 -0.000001 0.000000 -0.000000 -3.405767 19.076285 14.453259 15.249449 14.620672 -5.800670 4.892161 5.223029 0.075633 -0.000002 -0.000002 -0.000000 0.380317 2.260830 -19.095160 0.158433 1.471502 -12.290084 0.039720 0.739984 -6.144038 -0.000001 -0.000001 -0.000002 0.380311 2.260822 -19.095168 0.158432 1.471508 -12.290089 0.039716 0.740000 -6.144018 -0.000005 -0.000001 0.000001 1.696010 6.096983 -18.680644 0.153590 -2.584216 -12.789190 0.039703 0.740003 -6.144016 0.000000 -0.000001 0.000000 4.388783 5.251080 -13.655869 -36.688313 -15.320307 37.628772 0.000167 105.893566 -0.000173 -51.862050 -10.563931 16.954712 3.442727 -6.002854 59.639381 3.333322 -5.937800 58.587717 0.886981 -3.403259 29.207412 -0.000001 -0.000000 0.000003 -37.976736 8.182700 28.214936 34.965501 -12.233903 -1.744585 13.752355 -1.914972 -4.903302 0.000000 0.000001 -0.000001 3.442731 -6.002849 59.639381 3.333314 -5.937752 58.587710 0.886971 -3.403254 29.207409 0.000003 -0.000001 -0.000002 3.442729 -6.002861 59.639381 3.333334 -5.937787 58.587717 0.886956 -3.403228 29.207395 0.000000 0.000000 0.000002 3.442720 -6.002842 59.639381 3.333345 -5.937785 58.587717 0.886962 -3.403235 29.207398 -0.000002 0.000002 0.000001 -17.882733 21.158645 9.213375 22.300807 10.050992 5.271373 -5.533940 6.906871 -6.873146 -0.000003 -0.000009 -0.000001 -0.000000 0.000001 -0.000000 -13.130947 -18.393891 -8.045137 9.736447 9.774324 -2.499823 1.414876 7.065492 8.779249 -0.000001 0.000007 -0.000004 0.000000 0.000001 -0.000000 
12.612481 200.910263 -0.986605 -0.003905 -12.947004 -2.198830 1.296701 -1.090254 -1.611713 0.240357 -0.889785 -0.511434 0.235426 -0.901002 -0.482011 0.453081 2.216123 1.288925 -1.397106 13.032281 -1.425212 -0.000000 0.000000 -0.000000 -0.000000 0.000000 -0.000000 -0.000000 0.000000 -0.000000 -1.464316 9.677767 -3.228345 40.825762 -61.628182 -25.902422 0.000017 -22.410402 0.000020 -25.263075 2.700763 11.059554 0.379675 2.258996 -19.079152 0.158856 1.473390 -12.306090 0.039718 0.739997 -6.144025 -0.000002 -0.000001 -0.000001 -3.405770 19.076285 14.453252 15.249449 14.620674 -5.800670 4.892162 5.223031 0.075631 0.000000 0.000000 0.000001 0.380312 2.260831 -19.095158 0.158439 1.471504 -12.290084 0.039721 0.739983 -6.144039 0.000000 -0.000001 -0.000001 0.380312 2.260823 -19.095168 0.158431 1.471507 -12.290087 0.039712 0.740001 -6.144019 -0.000000 0.000000 -0.000000 1.696009 6.096985 -18.680656 0.153587 -2.584218 -12.789191 0.039703 0.740003 -6.144016 -0.000001 0.000000 0.000001 4.369229 5.312953 -12.726349 -33.885538 -12.531993 37.924974 0.000112 104.784896 -0.000118 -50.348623 -10.679685 16.368267 2.036491 -4.920589 44.945961 2.475839 -5.322886 49.864120 0.647322 -2.934482 24.874518 0.000001 -0.000004 0.000003 -35.876412 7.292794 27.159050 37.799373 -13.365085 -1.478152 15.146607 -2.621983 -4.914448 -0.000002 -0.000005 -0.000001 2.036491 -4.920591 44.945951 2.475826 -5.322848 49.864120 0.647335 -2.934490 24.874518 -0.000001 -0.000002 0.000004 2.036497 -4.920590 44.945954 2.475812 -5.322879 49.864120 0.647345 -2.934492 24.874526 -0.000002 0.000000 -0.000003 2.036488 -4.920581 44.945961 2.475834 -5.322878 49.864120 0.647323 -2.934484 24.874519 0.000000 0.000003 -0.000000 -17.781481 20.891652 9.425211 22.071241 10.054571 5.246396 -5.281556 6.713170 -7.084715 -0.000003 -0.000009 -0.000001 0.000000 -0.000000 -0.000000 -13.019871 -18.179612 -7.859453 10.138590 9.774415 -2.333944 1.108267 6.429208 8.458218 -0.000002 0.000011 0.000002 0.000000 -0.000001 0.000000 
11.840772 200.963013 -0.988874 -0.046212 -12.518623 -2.225853 1.316625 -1.113367 -1.473296 0.242014 -0.907281 -0.445389 0.236998 -0.916515 -0.414928 0.292961 2.166167 1.304635 -1.432333 12.785680 -1.361449 0.000000 0.000000 -0.000000 0.000000 0.000000 -0.000000 0.000000 0.000000 -0.000000 -1.464579 9.658498 -3.183794 40.713381 -61.992259 -25.974383 -0.000015 -22.205712 -0.000012 -25.279206 2.912129 10.720536 0.379674 2.258998 -19.079152 0.158855 1.473390 -12.306088 0.039715 0.739997 -6.144025 -0.000002 0.000001 0.000001 -3.405767 19.076285 14.453254 15.249453 14.620670 -5.800672 4.892163 5.223026 0.075632 0.000000 0.000001 0.000000 0.380316 2.260831 -19.095155 0.158440 1.471503 -12.290085 0.039720 0.739985 -6.144040 -0.000001 0.000000 0.000000 0.380305 2.260827 -19.095174 0.158432 1.471508 -12.290091 0.039720 0.740003 -6.144020 -0.000001 -0.000001 0.000001 1.696009 6.096985 -18.680648 0.153588 -2.584214 -12.789191 0.039708 0.740003 -6.144015 -0.000002 0.000000 0.000001 4.334703 5.353244 -11.645592 -30.956603 -9.560805 37.985254 0.000057 103.583179 -0.000096 -48.804505 -10.676836 15.287043 1.439780 -4.241476 37.485260 1.928146 -4.809990 43.668545 0.498797 -2.590595 21.793785 0.000000 -0.000001 -0.000002 -32.571693 5.738807 25.611640 37.759741 -13.380984 -1.483191 15.126704 -2.627807 -4.915568 0.000003 0.000002 -0.000001 1.439777 -4.241479 37.485270 1.928136 -4.809968 43.668558 0.498798 -2.590609 21.793785 -0.000000 0.000001 -0.000001 1.439770 -4.241486 37.485273 1.928146 -4.809989 43.668548 0.498796 -2.590599 21.793790 0.000000 -0.000001 -0.000003 1.439779 -4.241473 37.485263 1.928134 -4.809984 43.668558 0.498794 -2.590600 21.793788 0.000001 0.000002 0.000000 -17.628903 20.528064 9.557282 21.776807 10.057499 5.261691 -4.990087 6.552874 -7.318380 -0.000003 -0.000010 -0.000001 0.000000 0.000000 0.000000 -12.910920 -18.000342 -7.711772 10.534856 9.775041 -2.136739 0.795272 5.786395 8.116923 -0.000001 0.000001 -0.000000 -0.000000 0.000001 0.000000 
